<svg id="_x31__px" enable-background="new 0 0 24 24" height="512" viewBox="0 0 24 24" width="512" xmlns="http://www.w3.org/2000/svg"><g id="XMLID_1_"><path d="m20.5 17c.28 0 .5.22.5.5s-.22.5-.5.5h-2.5v-1z"/><path d="m17.393 3.602h1.004v5.006h-1.004z" transform="matrix(.707 -.707 .707 .707 .924 14.442)"/><path d="m20.36 8.58-1.35 1.35c-.09.1-.22.15-.35.15s-.26-.05-.35-.15c-.2-.19-.2-.51 0-.7l1-1 .33.33c.1.1.22.14.35.14s.26-.05.35-.14z"/><path d="m19.31 8.23.71-.71.32.33c.2.2.2.51 0 .71-.09.09-.22.14-.35.14s-.25-.04-.35-.14z"/><path d="m18 18v2.5c0 .28-.22.5-.5.5s-.5-.22-.5-.5v-2.5z"/><path d="m17 17h1v1h-1z"/><path d="m18 14.5v2.5h-1v-2.5c0-.28.22-.5.5-.5s.5.22.5.5z"/><path d="m17 17v1h-2.5c-.28 0-.5-.22-.5-.5s.22-.5.5-.5z"/><path d="m16.48 3.98-.71.71-.33-.33c-.2-.2-.2-.51 0-.71.19-.19.51-.19.71 0z"/><path d="m20.34 7.85-.32-.33 2.17-2.17c.47-.47.73-1.1.73-1.77s-.26-1.3-.73-1.76c-.98-.98-2.56-.98-3.54-.01l-2.17 2.17-.33-.33c-.2-.19-.52-.19-.71 0l-.02-.02 2.53-2.52c1.36-1.37 3.58-1.37 4.94 0 .66.65 1.03 1.53 1.03 2.47 0 .95-.37 1.82-1.03 2.48l-2.53 2.52-.02-.02c.2-.2.2-.51 0-.71z"/><path d="m3.35 16.41c-.2-.19-.52-.19-.71 0l12.78-12.78.02.02c-.2.2-.2.51 0 .71l.33.33-12.07 12.07z"/><path d="m11 17.5c0-3.58 2.92-6.5 6.5-6.5.34 0 .68.03 1.01.08 3.1.49 5.49 3.18 5.49 6.42 0 3.58-2.92 6.5-6.5 6.5-3.24 0-5.93-2.39-6.42-5.49-.05-.33-.08-.67-.08-1.01zm1 0c0 3.03 2.47 5.5 5.5 5.5s5.5-2.47 5.5-5.5-2.47-5.5-5.5-5.5-5.5 2.47-5.5 5.5z"/><path d="m9.93 19.01-2.33 2.33c.18-.2.17-.5-.01-.69l-.35-.35 1.99-1.99c.19-.2.51-.2.7 0 .1.09.15.22.15.35s-.05.26-.15.35z"/><path d="m7.59 21.35v.01c-.03.02-.05.05-.08.06.03-.02.05-.04.08-.07z"/><path d="m7.59 20.65c.18.19.19.49.01.69 0 .01-.01.01-.01.01-.03.03-.05.05-.08.07-.04.03-.08.05-.12.06-.05.01-.1.02-.15.02-.13 0-.26-.04-.36-.14l-.56-.56.65-.23.27-.27z"/><path d="m7.24 20.3-.27.27-.65.23-3.13-3.13.23-.64.28-.27z"/><path d="m2.64 16.41c.19-.19.51-.19.71 0l.35.35-.28.27-.23.64-.55-.55c-.15-.15-.19-.36-.11-.54.02-.06.06-.12.11-.17z"/><path d="m2.64 16.41c-.05.05-.09.11-.11.17.01-.07.05-.12.11-.17z"/><path d="m2.64 17.12.55.55-1.78 4.92 4.91-1.79.56.56c.1.1.23.14.36.14.05 0 .1-.01.15-.02l-6.64 2.41c-.06.02-.11.03-.17.03-.13 0-.26-.05-.35-.15-.14-.13-.19-.34-.12-.52l2.41-6.66.01-.01c-.08.18-.04.39.11.54z"/></g></svg>